<?xml version="1.0" encoding="iso-8859-1"?>
<!-- Generator: Adobe Illustrator 19.0.0, SVG Export Plug-In . SVG Version: 6.00 Build 0)  -->
<svg version="1.1" id="Capa_1" xmlns="http://www.w3.org/2000/svg" xmlns:xlink="http://www.w3.org/1999/xlink" x="0px" y="0px"
	 viewBox="0 0 489.7 489.7" style="enable-background:new 0 0 489.7 489.7;" xml:space="preserve">
<g>
	<g>
		<path d="M244.85,177.3c-86.3,0-156.2,70-156.2,156.2s70,156.2,156.2,156.2s156.2-70,156.2-156.2S331.15,177.3,244.85,177.3z
			 M264.65,341.7v42.4c0,11.4-9.2,20.6-20.6,20.6l0,0c-11.4,0-20.6-9.2-20.6-20.6v-42.4c-14-7.8-23.3-23.7-21.4-41.6
			c2.3-19.4,17.9-35,36.9-36.9c25.3-2.7,47,17.1,47,42C286.05,320.7,277.55,334.3,264.65,341.7z"/>
		<path d="M186.95,115.5c0-31.5,25.7-56.7,56.7-56.7c31.5,0,56.7,25.7,56.7,56.7v51.2c21.6,7.2,41.3,18.5,58.3,32.9v-84.1
			C359.55,51.7,307.85,0,244.05,0s-115.4,51.7-115.4,115.5v86.1c16.9-14.9,36.6-26.6,58.3-34.1V115.5z"/>
	</g>
</g>
<g>
</g>
<g>
</g>
<g>
</g>
<g>
</g>
<g>
</g>
<g>
</g>
<g>
</g>
<g>
</g>
<g>
</g>
<g>
</g>
<g>
</g>
<g>
</g>
<g>
</g>
<g>
</g>
<g>
</g>
</svg>
