<?xml version="1.0" encoding="iso-8859-1"?>
<!-- Generator: Adobe Illustrator 19.0.0, SVG Export Plug-In . SVG Version: 6.00 Build 0)  -->
<svg version="1.1" id="Capa_1" xmlns="http://www.w3.org/2000/svg" xmlns:xlink="http://www.w3.org/1999/xlink" x="0px" y="0px"
	 viewBox="0 0 489.6 489.6" style="enable-background:new 0 0 489.6 489.6;" xml:space="preserve">
<g>
	<g>
		<g>
			<path d="M187.4,130.5v64.2h61.4v-64.2c0-68.8-56-124.4-124.4-124.4C55.6,6.1,0,62.1,0,130.5v84h61.4v-84
				c0-35,28.4-63.4,63.4-63.4C159.1,67.1,187.4,95.5,187.4,130.5z"/>
			<path d="M455.8,214.5H173.4c-18.7,0-33.8,15.2-33.8,33.8v201.4c0,18.7,15.2,33.8,33.8,33.8h282.4c18.7,0,33.8-15.2,33.8-33.8
				V248.3C489.6,229.6,474.4,214.5,455.8,214.5z M342.2,408.9h-55.6l11.3-58.7c-9.7-5.8-15.9-16.3-15.9-28.4
				c0-18.3,14.8-33.1,33.1-33.1c18.3,0,33.1,14.8,33.1,33.1c0,12.1-6.6,22.6-15.9,28.4L342.2,408.9z"/>
		</g>
	</g>
</g>
<g>
</g>
<g>
</g>
<g>
</g>
<g>
</g>
<g>
</g>
<g>
</g>
<g>
</g>
<g>
</g>
<g>
</g>
<g>
</g>
<g>
</g>
<g>
</g>
<g>
</g>
<g>
</g>
<g>
</g>
</svg>
