<?xml version="1.0" encoding="iso-8859-1"?>
<!-- Generator: Adobe Illustrator 19.0.0, SVG Export Plug-In . SVG Version: 6.00 Build 0)  -->
<svg version="1.1" id="Layer_1" xmlns="http://www.w3.org/2000/svg" xmlns:xlink="http://www.w3.org/1999/xlink" x="0px" y="0px"
	 viewBox="0 0 512 512" style="enable-background:new 0 0 512 512;" xml:space="preserve">
<g>
	<g>
		<path fill="#7a7a7a" d="M490.667,384h-85.333c-70.693,0-128-57.307-128-128s57.307-128,128-128h33.83l-27.582,27.582
			c-8.331,8.331-8.331,21.839,0,30.17c8.331,8.331,21.839,8.331,30.17,0l64-64c0.004-0.004,0.007-0.008,0.011-0.012
			c0.492-0.493,0.959-1.012,1.402-1.551c0.203-0.247,0.379-0.507,0.568-0.76c0.227-0.304,0.463-0.601,0.674-0.917
			c0.203-0.303,0.379-0.618,0.565-0.93c0.171-0.286,0.35-0.565,0.508-0.86c0.17-0.318,0.314-0.645,0.467-0.969
			c0.145-0.307,0.298-0.609,0.428-0.923c0.13-0.315,0.235-0.636,0.35-0.956c0.121-0.337,0.25-0.67,0.355-1.015
			c0.097-0.32,0.168-0.645,0.249-0.968c0.089-0.351,0.187-0.698,0.258-1.056c0.074-0.375,0.118-0.753,0.172-1.13
			c0.044-0.311,0.104-0.618,0.135-0.933c0.138-1.4,0.138-2.811,0-4.211c-0.031-0.315-0.09-0.621-0.135-0.932
			c-0.054-0.378-0.098-0.756-0.173-1.13c-0.071-0.358-0.169-0.704-0.258-1.055c-0.081-0.324-0.152-0.649-0.249-0.969
			c-0.104-0.344-0.233-0.677-0.354-1.013c-0.115-0.32-0.22-0.642-0.35-0.957c-0.13-0.314-0.283-0.616-0.428-0.922
			c-0.153-0.325-0.297-0.652-0.467-0.97c-0.157-0.294-0.337-0.573-0.507-0.859c-0.186-0.312-0.362-0.627-0.565-0.931
			c-0.211-0.315-0.446-0.612-0.673-0.915c-0.19-0.254-0.367-0.515-0.57-0.762c-0.443-0.539-0.909-1.058-1.402-1.551
			c-0.004-0.004-0.007-0.008-0.011-0.012l-64-64c-8.331-8.331-21.839-8.331-30.17,0c-8.331,8.331-8.331,21.839,0,30.17
			l27.582,27.582h-33.83c-64.264,0-120.222,35.525-149.333,88.002c-29.111-52.477-85.069-88.002-149.333-88.002H21.333
			C9.551,85.333,0,94.885,0,106.667C0,118.449,9.551,128,21.333,128h85.333c70.693,0,128,57.307,128,128s-57.307,128-128,128h-33.83
			l27.582-27.582c8.331-8.331,8.331-21.839,0-30.17c-8.331-8.331-21.839-8.331-30.17,0l-64,64c-0.004,0.004-0.006,0.008-0.01,0.011
			c-0.493,0.494-0.96,1.012-1.403,1.552c-0.203,0.247-0.379,0.507-0.569,0.761c-0.227,0.303-0.462,0.6-0.673,0.916
			c-0.203,0.304-0.379,0.619-0.565,0.931c-0.171,0.286-0.35,0.565-0.508,0.859c-0.17,0.318-0.314,0.644-0.467,0.969
			c-0.145,0.307-0.298,0.609-0.429,0.923c-0.13,0.315-0.236,0.637-0.35,0.957c-0.121,0.337-0.25,0.669-0.355,1.014
			c-0.097,0.32-0.168,0.645-0.249,0.968c-0.089,0.351-0.187,0.698-0.258,1.056c-0.074,0.375-0.118,0.753-0.172,1.13
			c-0.044,0.311-0.104,0.618-0.135,0.933c-0.138,1.4-0.138,2.811,0,4.211c0.031,0.315,0.09,0.621,0.135,0.932
			c0.054,0.378,0.098,0.756,0.173,1.13c0.071,0.358,0.169,0.704,0.258,1.055c0.081,0.324,0.152,0.649,0.249,0.969
			c0.104,0.344,0.233,0.677,0.354,1.013c0.115,0.32,0.22,0.642,0.35,0.957c0.131,0.315,0.284,0.617,0.429,0.924
			c0.153,0.324,0.296,0.65,0.466,0.968c0.158,0.295,0.338,0.575,0.509,0.861c0.186,0.311,0.362,0.626,0.565,0.929
			c0.212,0.316,0.447,0.614,0.675,0.918c0.19,0.253,0.365,0.512,0.567,0.759c0.446,0.544,0.916,1.067,1.413,1.564l64,64
			c8.331,8.331,21.839,8.331,30.17,0s8.331-21.839,0-30.17l-27.582-27.582h33.83c64.264,0,120.222-35.525,149.333-88.002
			c29.111,52.477,85.07,88.002,149.333,88.002h85.333c11.782,0,21.333-9.551,21.333-21.333C512,393.551,502.449,384,490.667,384z"/>
	</g>
</g>
<g>
</g>
<g>
</g>
<g>
</g>
<g>
</g>
<g>
</g>
<g>
</g>
<g>
</g>
<g>
</g>
<g>
</g>
<g>
</g>
<g>
</g>
<g>
</g>
<g>
</g>
<g>
</g>
<g>
</g>
</svg>
