<?xml version="1.0" encoding="UTF-8" standalone="no"?>
<!DOCTYPE svg PUBLIC "-//W3C//DTD SVG 20010904//EN"
              "http://www.w3.org/TR/2001/REC-SVG-20010904/DTD/svg10.dtd">

<svg xmlns="http://www.w3.org/2000/svg"
     width="1.66667in" height="1.66667in"
     viewBox="0 0 500 500">
  <path id="Sélection"
        fill="none" stroke="black" stroke-width="1"
        d="M 209.00,4.00
           C 209.00,4.00 226.00,3.04 226.00,3.04
             226.00,3.04 240.00,4.00 240.00,4.00
             242.13,6.45 245.85,7.05 249.00,7.00
             249.00,7.00 249.00,9.00 249.00,9.00
             254.41,8.92 260.20,11.20 263.00,16.00
             263.00,16.00 265.00,15.00 265.00,15.00
             265.00,15.00 278.00,26.00 278.00,26.00
             278.00,26.00 277.00,28.00 277.00,28.00
             277.00,28.00 280.00,29.00 280.00,29.00
             280.00,29.00 284.44,37.58 284.44,37.58
             284.44,37.58 289.00,47.00 289.00,47.00
             289.00,47.00 292.00,61.00 292.00,61.00
             292.00,61.00 291.00,64.00 291.00,64.00
             291.00,64.00 295.00,64.00 295.00,64.00
             297.08,66.12 299.13,66.12 302.00,66.00
             302.00,66.00 302.00,68.00 302.00,68.00
             302.00,68.00 304.00,67.00 304.00,67.00
             304.00,67.00 304.00,69.00 304.00,69.00
             304.00,69.00 310.00,69.00 310.00,69.00
             310.00,69.00 321.00,74.13 321.00,74.13
             321.00,74.13 329.00,78.00 329.00,78.00
             329.00,78.00 333.00,80.00 333.00,80.00
             333.00,80.00 335.00,84.00 335.00,84.00
             335.00,84.00 337.00,83.00 337.00,83.00
             337.00,83.00 354.58,99.41 354.58,99.41
             354.58,99.41 363.00,109.00 363.00,109.00
             363.00,109.00 367.57,124.83 367.57,124.83
             367.57,124.83 367.00,144.00 367.00,144.00
             367.00,144.00 361.76,152.57 361.76,152.57
             361.76,152.57 350.00,166.00 350.00,166.00
             350.00,166.00 348.00,165.00 348.00,165.00
             348.00,165.00 348.00,167.00 348.00,167.00
             348.00,167.00 344.00,170.00 344.00,170.00
             344.00,170.00 342.00,169.00 342.00,169.00
             338.41,174.61 319.35,183.08 317.00,192.00
             312.56,195.47 307.60,200.12 307.00,206.00
             303.77,209.49 300.90,214.13 301.00,219.00
             301.00,219.00 299.00,219.00 299.00,219.00
             299.10,221.90 299.27,225.02 297.00,227.00
             297.00,227.00 296.00,230.00 296.00,230.00
             296.00,230.00 294.70,248.00 294.70,248.00
             294.70,248.00 294.70,259.00 294.70,259.00
             294.70,259.00 294.70,266.00 294.70,266.00
             294.70,266.00 295.59,271.00 295.59,271.00
             295.59,271.00 297.23,292.00 297.23,292.00
             297.23,292.00 297.23,296.00 297.23,296.00
             297.23,296.00 299.00,296.00 299.00,296.00
             299.00,296.00 299.00,309.00 299.00,309.00
             299.00,309.00 301.00,309.00 301.00,309.00
             301.00,309.00 302.66,328.00 302.66,328.00
             302.66,328.00 302.66,359.00 302.66,359.00
             302.66,359.00 302.66,372.00 302.66,372.00
             302.66,372.00 299.00,396.00 299.00,396.00
             299.00,396.00 294.96,406.09 294.96,406.09
             294.96,406.09 288.74,422.00 288.74,422.00
             288.74,422.00 285.00,431.00 285.00,431.00
             281.90,433.63 278.65,436.88 278.00,441.00
             278.00,441.00 268.46,451.70 268.46,451.70
             268.46,451.70 259.00,461.00 259.00,461.00
             259.00,461.00 247.00,467.00 247.00,467.00
             247.00,467.00 247.00,468.80 247.00,468.80
             253.96,470.18 266.77,469.51 273.96,468.80
             279.58,467.90 285.35,466.17 291.00,467.00
             291.00,467.00 291.00,465.00 291.00,465.00
             294.28,465.08 296.45,465.22 299.00,463.00
             303.26,463.03 310.79,460.73 314.00,458.00
             314.00,458.00 320.00,458.00 320.00,458.00
             320.00,458.00 320.00,456.00 320.00,456.00
             320.00,456.00 339.97,447.80 339.97,447.80
             339.97,447.80 344.00,444.00 344.00,444.00
             347.63,443.64 348.56,442.60 351.00,440.00
             354.98,439.54 356.60,438.09 359.00,435.00
             359.00,435.00 361.00,436.00 361.00,436.00
             361.00,436.00 380.85,418.74 380.85,418.74
             380.85,418.74 403.00,397.00 403.00,397.00
             403.00,397.00 402.00,395.00 402.00,395.00
             405.19,392.08 409.31,388.39 410.00,384.00
             417.98,376.69 423.16,363.84 427.60,354.09
             429.52,349.87 433.12,342.37 433.00,338.00
             433.00,338.00 435.00,338.00 435.00,338.00
             435.00,338.00 435.00,331.00 435.00,331.00
             435.00,331.00 439.00,324.00 439.00,324.00
             439.00,324.00 439.00,315.00 439.00,315.00
             439.00,315.00 442.00,311.00 442.00,311.00
             442.00,311.00 444.00,282.00 444.00,282.00
             444.00,282.00 444.00,254.00 444.00,254.00
             444.00,254.00 439.00,236.00 439.00,236.00
             439.00,236.00 439.00,227.00 439.00,227.00
             439.00,227.00 435.00,220.00 435.00,220.00
             435.10,213.19 433.14,212.04 430.92,206.29
             430.92,206.29 425.05,191.00 425.05,191.00
             425.05,191.00 421.79,184.42 421.79,184.42
             419.65,180.23 417.95,173.26 421.79,170.00
             421.79,170.00 421.00,168.00 421.00,168.00
             421.00,168.00 422.00,167.00 422.00,167.00
             422.00,167.00 427.10,165.54 427.10,165.54
             427.10,165.54 435.00,165.00 435.00,165.00
             435.00,165.00 437.00,166.00 437.00,166.00
             443.41,174.90 446.42,180.41 450.92,190.42
             452.86,194.73 455.01,198.19 455.00,203.00
             455.00,203.00 457.00,203.00 457.00,203.00
             457.00,203.00 457.00,209.00 457.00,209.00
             457.00,209.00 459.00,209.00 459.00,209.00
             459.00,209.00 461.00,216.00 461.00,216.00
             461.00,216.00 461.00,224.00 461.00,224.00
             461.00,224.00 463.00,224.00 463.00,224.00
             463.00,224.00 463.00,233.00 463.00,233.00
             463.00,233.00 464.00,237.00 464.00,237.00
             464.00,237.00 466.00,237.00 466.00,237.00
             466.00,237.00 467.73,253.17 467.73,253.17
             467.73,253.17 467.73,276.00 467.73,276.00
             467.73,276.00 467.73,298.83 467.73,298.83
             467.73,298.83 466.00,315.00 466.00,315.00
             466.00,315.00 464.00,315.00 464.00,315.00
             464.00,315.00 463.00,319.00 463.00,319.00
             463.00,319.00 463.00,328.00 463.00,328.00
             463.00,328.00 461.00,336.00 461.00,336.00
             461.00,336.00 456.97,345.09 456.97,345.09
             456.97,345.09 452.00,361.00 452.00,361.00
             449.18,364.07 443.18,376.83 443.00,381.00
             437.33,385.53 437.35,388.20 433.83,393.83
             431.66,397.32 429.59,398.70 429.00,403.00
             429.00,403.00 410.66,424.78 410.66,424.78
             410.66,424.78 405.59,429.26 405.59,429.26
             405.59,429.26 398.84,436.63 398.84,436.63
             398.84,436.63 384.00,450.00 384.00,450.00
             384.00,450.00 382.00,449.00 382.00,449.00
             382.00,449.00 368.00,461.00 368.00,461.00
             368.00,461.00 366.00,460.00 366.00,460.00
             366.00,460.00 366.00,462.00 366.00,462.00
             366.00,462.00 363.00,464.00 363.00,464.00
             363.00,464.00 358.00,467.00 358.00,467.00
             352.81,467.59 335.68,479.12 327.00,479.00
             327.00,479.00 327.00,481.00 327.00,481.00
             327.00,481.00 325.00,480.00 325.00,480.00
             325.00,480.00 325.00,482.00 325.00,482.00
             325.00,482.00 293.00,489.00 293.00,489.00
             293.00,489.00 293.00,491.00 293.00,491.00
             293.00,491.00 263.00,493.67 263.00,493.67
             263.00,493.67 243.00,493.67 243.00,493.67
             243.00,493.67 223.54,492.33 223.54,492.33
             223.54,492.33 222.00,491.00 222.00,491.00
             222.00,491.00 209.00,491.00 209.00,491.00
             209.00,491.00 209.00,489.00 209.00,489.00
             209.00,489.00 199.00,489.00 199.00,489.00
             196.10,486.35 185.97,483.91 182.00,484.00
             182.00,484.00 182.00,482.00 182.00,482.00
             182.00,482.00 163.00,477.00 163.00,477.00
             163.00,477.00 141.00,465.35 141.00,465.35
             141.00,465.35 131.00,461.00 131.00,461.00
             131.00,461.00 112.62,447.04 112.62,447.04
             112.62,447.04 94.00,431.74 94.00,431.74
             94.00,431.74 69.00,403.00 69.00,403.00
             69.00,403.00 70.00,401.00 70.00,401.00
             70.00,401.00 60.00,389.00 60.00,389.00
             60.00,389.00 56.37,380.00 56.37,380.00
             56.37,380.00 46.00,360.00 46.00,360.00
             46.00,360.00 45.00,352.00 45.00,352.00
             45.00,352.00 43.00,352.00 43.00,352.00
             43.00,352.00 43.00,346.00 43.00,346.00
             43.00,346.00 41.00,346.00 41.00,346.00
             41.00,346.00 39.00,339.00 39.00,339.00
             39.00,339.00 36.00,318.00 36.00,318.00
             36.00,318.00 34.00,318.00 34.00,318.00
             34.00,318.00 32.52,302.00 32.52,302.00
             32.52,302.00 31.91,286.00 31.91,286.00
             31.91,286.00 31.03,277.00 31.03,277.00
             31.03,277.00 31.91,268.00 31.91,268.00
             31.91,268.00 32.52,252.00 32.52,252.00
             32.52,252.00 34.00,236.00 34.00,236.00
             34.00,236.00 36.00,236.00 36.00,236.00
             36.00,236.00 39.00,214.00 39.00,214.00
             39.00,214.00 41.00,207.00 41.00,207.00
             43.45,204.61 45.92,196.46 46.00,193.00
             46.00,193.00 48.00,193.00 48.00,193.00
             48.38,183.28 60.75,166.32 62.00,159.00
             62.00,159.00 69.00,152.00 69.00,152.00
             69.00,152.00 68.00,150.00 68.00,150.00
             68.00,150.00 70.00,150.00 70.00,150.00
             70.45,146.37 73.94,141.97 77.00,140.00
             77.00,140.00 76.00,138.00 76.00,138.00
             76.00,138.00 99.00,112.00 99.00,112.00
             103.05,111.08 108.26,105.21 111.00,102.00
             111.00,102.00 113.00,103.00 113.00,103.00
             113.00,103.00 118.00,96.00 118.00,96.00
             118.00,96.00 120.00,97.00 120.00,97.00
             120.00,97.00 120.00,95.00 120.00,95.00
             123.38,94.49 124.99,92.63 127.00,90.00
             127.00,90.00 129.00,91.00 129.00,91.00
             129.00,91.00 131.00,87.00 131.00,87.00
             134.64,86.57 135.56,85.65 138.00,83.00
             138.00,83.00 152.14,76.02 152.14,76.02
             152.14,76.02 153.40,69.28 153.40,69.28
             153.40,69.28 156.00,53.00 156.00,53.00
             156.00,53.00 164.03,37.01 164.03,37.01
             164.03,37.01 182.00,16.00 182.00,16.00
             182.00,16.00 184.00,17.00 184.00,17.00
             184.00,17.00 184.00,15.00 184.00,15.00
             184.00,15.00 194.58,9.56 194.58,9.56
             194.58,9.56 206.00,5.00 206.00,5.00
             206.00,5.00 209.00,6.00 209.00,6.00
             209.00,6.00 209.00,4.00 209.00,4.00 Z
           M 237.00,29.00
           C 237.00,29.00 225.00,28.08 225.00,28.08
             225.00,28.08 213.00,29.00 213.00,29.00
             213.00,29.00 201.09,34.60 201.09,34.60
             201.09,34.60 187.00,46.00 187.00,46.00
             187.00,46.00 188.00,48.00 188.00,48.00
             182.22,50.91 183.52,55.06 180.00,59.00
             180.00,59.00 178.35,72.91 178.35,72.91
             178.25,74.91 178.87,76.25 179.15,78.17
             180.48,87.20 182.75,98.68 191.00,104.00
             191.00,104.00 190.00,106.00 190.00,106.00
             196.71,112.44 195.57,114.07 198.00,122.00
             198.00,122.00 190.00,126.87 190.00,126.87
             190.00,126.87 179.00,125.00 179.00,125.00
             179.00,125.00 179.00,123.00 179.00,123.00
             179.00,123.00 167.00,115.00 167.00,115.00
             166.48,111.35 166.35,110.70 163.00,109.00
             162.43,105.11 160.80,102.71 158.00,100.00
             158.00,100.00 148.00,108.00 148.00,108.00
             144.96,108.20 145.07,108.13 144.00,111.00
             139.78,111.16 136.46,114.55 133.12,116.99
             123.69,123.90 114.87,131.74 107.60,140.83
             104.57,144.62 99.70,148.03 99.00,153.00
             99.00,153.00 97.00,156.00 97.00,156.00
             97.00,156.00 94.00,157.00 94.00,157.00
             94.00,157.00 95.00,159.00 95.00,159.00
             95.00,159.00 91.00,161.00 91.00,161.00
             91.00,161.00 92.00,163.00 92.00,163.00
             87.11,165.40 85.47,169.77 83.15,174.42
             79.87,181.01 72.06,193.76 72.00,201.00
             72.00,201.00 70.00,201.00 70.00,201.00
             70.00,201.00 70.00,207.00 70.00,207.00
             70.00,207.00 68.00,207.00 68.00,207.00
             68.00,207.00 69.00,209.00 69.00,209.00
             69.00,209.00 67.00,209.00 67.00,209.00
             67.00,209.00 67.00,215.00 67.00,215.00
             67.00,215.00 65.00,215.00 65.00,215.00
             65.00,215.00 63.00,231.00 63.00,231.00
             63.00,231.00 61.00,231.00 61.00,231.00
             61.00,231.00 61.00,242.00 61.00,242.00
             61.00,242.00 59.00,242.00 59.00,242.00
             59.00,242.00 57.44,259.00 57.44,259.00
             57.44,259.00 57.44,267.00 57.44,267.00
             57.44,267.00 56.04,276.00 56.04,276.00
             56.04,276.00 57.56,287.00 57.56,287.00
             57.56,287.00 57.56,295.00 57.56,295.00
             57.56,295.00 59.00,312.00 59.00,312.00
             59.00,312.00 61.00,312.00 61.00,312.00
             60.26,315.74 59.84,320.31 63.00,323.00
             62.56,326.17 62.35,328.84 65.00,331.00
             65.00,331.00 68.00,347.00 68.00,347.00
             68.00,347.00 70.00,347.00 70.00,347.00
             70.06,354.86 76.92,366.26 80.92,373.00
             83.30,377.01 83.81,379.56 88.00,382.00
             88.43,386.99 90.58,389.76 95.00,392.00
             95.00,392.00 94.00,394.00 94.00,394.00
             94.00,394.00 97.00,395.00 97.00,395.00
             97.00,395.00 96.00,397.00 96.00,397.00
             96.00,397.00 104.55,406.55 104.55,406.55
             104.55,406.55 110.90,412.10 110.90,412.10
             114.48,415.67 114.80,418.70 120.00,419.00
             120.00,419.00 126.00,427.00 126.00,427.00
             126.00,427.00 128.00,426.00 128.00,426.00
             128.00,426.00 129.00,429.00 129.00,429.00
             129.00,429.00 131.00,428.00 131.00,428.00
             133.65,433.29 137.10,434.47 142.00,437.40
             150.88,442.72 159.65,447.03 169.09,451.20
             173.00,452.93 176.56,452.90 179.00,455.00
             179.00,455.00 197.00,457.23 197.00,457.23
             197.00,457.23 204.00,457.23 204.00,457.23
             204.00,457.23 211.00,457.23 211.00,457.23
             211.00,457.23 223.00,456.00 223.00,456.00
             223.00,456.00 223.00,454.00 223.00,454.00
             223.00,454.00 225.00,455.00 225.00,455.00
             225.00,455.00 225.00,453.00 225.00,453.00
             229.78,453.06 234.40,451.12 237.00,447.00
             237.00,447.00 241.00,444.00 241.00,444.00
             241.00,444.00 243.00,445.00 243.00,445.00
             243.00,445.00 244.00,442.00 244.00,442.00
             244.00,442.00 246.00,443.00 246.00,443.00
             246.00,443.00 255.00,434.00 255.00,434.00
             255.00,434.00 254.00,432.00 254.00,432.00
             257.66,429.64 260.83,426.50 261.00,422.00
             266.61,418.76 272.41,405.49 272.00,399.00
             275.10,396.34 276.22,389.03 276.85,385.00
             278.57,374.08 280.13,361.01 280.00,350.00
             280.00,350.00 279.09,340.00 279.09,340.00
             279.09,340.00 274.62,297.00 274.62,297.00
             274.62,297.00 271.55,274.00 271.55,274.00
             271.55,274.00 271.55,268.00 271.55,268.00
             271.72,263.80 269.71,261.68 270.22,257.00
             270.22,257.00 271.53,251.00 271.53,251.00
             271.53,251.00 271.53,244.00 271.53,244.00
             271.53,244.00 273.72,230.00 273.72,230.00
             274.77,224.85 277.27,218.06 277.00,213.00
             277.00,213.00 279.00,213.00 279.00,213.00
             279.00,213.00 281.00,208.00 281.00,208.00
             281.00,208.00 286.00,192.00 286.00,192.00
             286.00,192.00 291.00,189.00 291.00,189.00
             291.00,189.00 290.00,187.00 290.00,187.00
             292.74,185.25 292.64,185.21 293.00,182.00
             298.17,178.85 307.03,170.64 309.00,165.00
             309.00,165.00 313.00,162.00 313.00,162.00
             316.55,161.59 316.83,161.39 318.00,158.00
             321.70,157.55 322.84,157.08 325.00,154.00
             325.00,154.00 327.00,155.00 327.00,155.00
             327.00,155.00 336.00,147.00 336.00,147.00
             336.00,147.00 338.00,148.00 338.00,148.00
             338.00,148.00 339.00,144.00 339.00,144.00
             339.00,144.00 345.00,141.00 345.00,141.00
             345.55,137.75 347.04,136.86 347.05,133.00
             347.34,131.16 347.33,127.72 347.05,126.00
             345.34,120.61 338.41,112.02 333.00,111.00
             333.00,111.00 328.00,104.00 328.00,104.00
             328.00,104.00 326.00,105.00 326.00,105.00
             326.00,105.00 326.00,103.00 326.00,103.00
             326.00,103.00 318.00,100.00 318.00,100.00
             315.58,96.02 312.53,94.95 308.00,95.00
             305.79,92.07 304.58,91.96 301.00,92.00
             301.00,92.00 301.00,90.00 301.00,90.00
             301.00,90.00 287.00,88.00 287.00,88.00
             284.85,85.33 281.15,85.56 278.00,86.00
             278.00,86.00 278.00,84.00 278.00,84.00
             278.00,84.00 276.00,85.00 276.00,85.00
             276.00,85.00 274.00,84.00 274.00,84.00
             274.00,84.00 270.00,81.00 270.00,81.00
             271.17,64.27 264.94,47.67 251.92,36.90
             243.81,30.19 240.54,32.14 237.00,29.00 Z
           M 119.00,97.00
           C 119.00,97.00 118.00,97.00 118.00,97.00
             118.00,97.00 119.00,98.00 119.00,98.00
             119.00,98.00 119.00,97.00 119.00,97.00 Z
           M 190.00,104.00
           C 190.00,104.00 189.00,104.00 189.00,104.00
             189.00,104.00 190.00,105.00 190.00,105.00
             190.00,105.00 190.00,104.00 190.00,104.00 Z
           M 423.00,168.00
           C 423.00,168.00 422.00,168.00 422.00,168.00
             422.00,168.00 423.00,169.00 423.00,169.00
             423.00,169.00 423.00,168.00 423.00,168.00 Z
           M 327.00,454.00
           C 327.00,454.00 326.00,454.00 326.00,454.00
             326.00,454.00 327.00,455.00 327.00,455.00
             327.00,455.00 327.00,454.00 327.00,454.00 Z
           M 246.00,468.00
           C 246.00,468.00 245.00,468.00 245.00,468.00
             245.00,468.00 246.00,469.00 246.00,469.00
             246.00,469.00 246.00,468.00 246.00,468.00 Z" />
</svg>
