<?xml version="1.0" encoding="UTF-8" standalone="no"?>
<!DOCTYPE svg PUBLIC "-//W3C//DTD SVG 20010904//EN"
              "http://www.w3.org/TR/2001/REC-SVG-20010904/DTD/svg10.dtd">

<svg xmlns="http://www.w3.org/2000/svg"
     width="1.66667in" height="1.66667in"
     viewBox="0 0 500 500">
  <path id="Sélection #1"
        fill="none" stroke="black" stroke-width="1"
        d="M 124.00,457.00
           C 124.00,457.00 96.00,433.91 96.00,433.91
             79.56,418.60 66.22,400.26 55.52,380.58
             37.37,347.20 30.56,308.59 31.00,271.00
             31.00,271.00 32.00,254.00 32.00,254.00
             32.10,245.98 34.90,234.02 36.55,226.00
             43.97,189.94 59.97,157.33 83.46,129.00
             95.70,114.24 113.11,99.38 129.00,88.75
             129.00,88.75 149.85,76.39 149.85,76.39
             153.83,72.93 152.77,68.69 153.62,64.00
             154.68,58.08 157.39,48.45 159.84,43.00
             168.23,24.39 188.09,8.83 208.00,4.52
             213.79,3.26 221.06,2.93 227.00,3.00
             260.56,3.40 291.24,29.38 292.00,64.00
             299.00,64.72 306.47,67.81 313.00,70.40
             336.81,79.87 370.68,104.04 368.91,133.00
             367.34,158.58 348.38,165.10 331.00,178.52
             318.09,188.49 306.64,202.47 301.33,218.00
             299.99,221.90 296.58,234.24 296.04,238.00
             296.04,238.00 296.04,247.00 296.04,247.00
             296.04,247.00 295.02,258.00 295.02,258.00
             295.02,258.00 296.00,270.00 296.00,270.00
             296.00,270.00 301.29,315.00 301.29,315.00
             302.22,322.48 302.99,322.51 303.00,331.00
             303.00,331.00 303.00,339.00 303.00,339.00
             303.00,339.00 303.92,350.00 303.92,350.00
             303.92,350.00 303.00,361.00 303.00,361.00
             303.00,361.00 303.00,367.00 303.00,367.00
             302.99,375.46 302.34,374.60 301.28,382.00
             296.34,416.81 277.73,450.60 247.00,469.00
             263.47,469.13 278.90,468.64 295.00,464.40
             359.39,447.41 411.01,400.96 433.15,338.00
             435.89,330.21 437.58,322.06 439.28,314.00
             439.28,314.00 441.54,305.00 441.54,305.00
             441.54,305.00 442.17,297.00 442.17,297.00
             443.43,283.99 444.17,285.79 444.00,271.00
             443.83,256.56 438.46,227.51 433.39,214.00
             433.39,214.00 424.87,193.00 424.87,193.00
             422.78,188.49 419.51,182.94 419.11,178.00
             418.32,168.26 426.77,161.93 435.96,165.85
             439.11,167.20 441.30,170.43 443.00,173.29
             456.37,195.66 467.70,232.94 468.00,259.00
             468.00,259.00 469.00,279.00 469.00,279.00
             469.00,279.00 467.96,291.00 467.96,291.00
             467.96,291.00 467.96,301.00 467.96,301.00
             466.39,315.43 462.60,330.10 458.45,344.00
             458.45,344.00 447.92,370.00 447.92,370.00
             446.12,373.66 441.59,381.54 441.00,385.00
             441.00,385.00 425.28,407.99 425.28,407.99
             418.72,417.14 405.51,431.24 397.00,438.83
             362.70,469.44 319.71,488.74 274.00,493.17
             274.00,493.17 249.00,495.00 249.00,495.00
             249.00,495.00 229.00,493.17 229.00,493.17
             229.00,493.17 207.00,490.48 207.00,490.48
             188.20,486.42 169.39,480.34 152.00,472.06
             152.00,472.06 133.00,461.72 133.00,461.72
             129.94,459.93 127.49,457.67 124.00,457.00 Z
           M 330.00,109.00
           C 327.61,104.73 323.20,102.25 319.00,99.87
             309.93,94.75 300.03,90.97 290.00,88.28
             285.27,87.01 277.76,85.95 274.05,83.20
             266.93,77.91 268.72,71.25 267.82,64.00
             267.25,59.40 264.47,52.89 261.98,49.00
             244.37,21.43 203.00,22.73 185.81,50.00
             180.17,58.94 180.28,64.14 179.99,74.00
             179.87,76.89 179.46,79.10 179.99,82.00
             180.78,86.04 184.05,94.30 186.04,98.00
             191.59,108.32 203.43,116.67 194.85,124.52
             189.76,129.51 184.01,127.73 178.85,124.52
             170.76,118.95 162.95,110.34 160.00,101.00
             136.71,109.90 108.04,138.67 93.98,159.00
             76.22,184.66 64.12,214.02 59.92,245.00
             58.86,252.78 58.01,253.34 58.00,262.00
             58.00,262.00 58.00,294.00 58.00,294.00
             58.08,300.56 60.97,315.23 62.50,322.00
             71.99,363.96 91.45,397.39 125.01,424.72
             159.01,452.40 216.78,475.17 251.71,435.99
             257.75,429.21 264.73,418.32 268.45,410.00
             278.07,388.48 279.27,365.17 279.00,342.00
             279.00,342.00 277.17,325.00 277.17,325.00
             277.17,325.00 274.71,302.00 274.71,302.00
             274.71,302.00 272.65,291.00 272.65,291.00
             272.65,291.00 270.00,263.00 270.00,263.00
             269.68,234.92 276.20,205.65 293.50,183.00
             305.66,167.08 316.53,159.86 333.00,149.42
             340.17,144.88 347.87,138.56 346.50,129.00
             345.12,119.44 337.26,115.10 332.00,108.00
             332.00,108.00 330.00,109.00 330.00,109.00 Z
           M 278.00,110.65
           C 282.29,109.76 286.89,109.51 290.91,111.59
             300.38,116.49 303.67,132.59 290.00,139.18
             287.38,140.44 284.93,141.14 282.00,140.77
             265.99,138.80 261.54,117.43 278.00,110.65 Z" />
</svg>
